<svg width="59" height="60" viewBox="0 0 59 60" fill="none" xmlns="http://www.w3.org/2000/svg">
<g clip-path="url(#clip0_1_457)" filter="url(#filter0_d_1_457)">
<g opacity="0.1">
<g opacity="0.1">
<path opacity="0.1" d="M10 26.7155H29.3366V7.42401C18.6579 7.42401 10 16.0617 10 26.7155Z" fill="#1E1E1E"/>
<path opacity="0.1" d="M48.6663 26.7155C48.6663 16.0617 40.0085 7.42401 29.3298 7.42401V26.7155H48.6663Z" fill="#1E1E1E"/>
<path opacity="0.1" d="M10 26.7156C10 37.363 18.6579 46.0007 29.3366 46.0007V26.7156H10Z" fill="#1E1E1E"/>
<path opacity="0.1" d="M29.3371 46.0005C40.0158 46.0005 48.6737 37.3628 48.6737 26.709H29.3371V46.0005Z" fill="#1E1E1E"/>
</g>
</g>
<path d="M10 25.2915H29.3366V6C18.6579 6 10 14.6377 10 25.2915Z" fill="#F37920"/>
<path d="M48.6672 25.2915C48.6672 14.6377 40.0093 6 29.3371 6V25.2915H48.6672Z" fill="#3CBDB2"/>
<path d="M10 25.2916C10 35.9454 18.6579 44.5831 29.3366 44.5831V25.2916H10Z" fill="#FFC624"/>
<path d="M29.3371 44.5765C40.0158 44.5765 48.6737 35.9388 48.6737 25.285H29.3371V44.5765Z" fill="#9ECD43"/>
<path d="M29.9248 15.9131C29.7547 15.7589 29.5614 15.674 29.3372 15.674C29.0898 15.674 28.8888 15.7511 28.7264 15.9131C28.5718 16.0674 28.4868 16.2757 28.4868 16.5225C28.4868 16.7693 28.5641 16.9699 28.7264 17.1319C28.8811 17.2861 29.0898 17.371 29.3372 17.371C29.5614 17.371 29.7624 17.2938 29.9248 17.1396C30.0949 16.9853 30.1799 16.777 30.1799 16.5302C30.1799 16.2757 30.0949 16.0674 29.9248 15.9131Z" fill="white"/>
<path d="M29.3372 34.9035C29.0898 34.9035 28.8888 34.8263 28.7264 34.6644C28.5718 34.5101 28.4868 34.3018 28.4868 34.055C28.4868 33.8082 28.5641 33.6076 28.7264 33.4456C28.8811 33.2914 29.0898 33.2065 29.3372 33.2065C29.5614 33.2065 29.7624 33.2836 29.9248 33.4456C30.0949 33.6076 30.1799 33.8082 30.1799 34.055C30.1799 34.3018 30.0949 34.5024 29.9248 34.6644C29.7547 34.8186 29.5614 34.9035 29.3372 34.9035ZM29.3372 33.4456C29.1517 33.4456 29.0125 33.4996 28.8965 33.6153C28.7806 33.731 28.7264 33.8699 28.7264 34.055C28.7264 34.2401 28.7806 34.379 28.8965 34.4947C29.0125 34.6104 29.1517 34.6644 29.3372 34.6644C29.4996 34.6644 29.6387 34.6104 29.7702 34.4947C29.8939 34.379 29.948 34.2401 29.948 34.055C29.948 33.8776 29.8862 33.731 29.7702 33.6153C29.6387 33.5073 29.4996 33.4456 29.3372 33.4456Z" fill="white"/>
<path d="M22.9668 21.8758C22.9668 21.467 23.0441 21.0891 23.1987 20.7265C23.3534 20.3717 23.5621 20.0555 23.825 19.7932C24.0879 19.531 24.3971 19.3227 24.7605 19.1684C25.1161 19.0142 25.5027 18.937 25.9125 18.937C26.3223 18.937 26.7011 19.0142 27.0645 19.1684C27.4201 19.3227 27.7294 19.531 27.9845 19.7855C28.1392 19.5387 28.317 19.315 28.518 19.1144C28.5412 19.0913 28.5721 19.0682 28.5953 19.045C28.2629 18.7288 27.8763 18.4819 27.4356 18.2891C26.9562 18.0885 26.446 17.9806 25.9048 17.9806C25.3636 17.9806 24.8533 18.0808 24.3739 18.2891C23.8946 18.4896 23.4848 18.7673 23.1369 19.1144C22.789 19.4615 22.5106 19.8781 22.3096 20.3486C22.1086 20.8268 22.0004 21.3359 22.0004 21.8758V25.2929H22.9591V21.8758H22.9668Z" fill="white"/>
<path d="M28.8506 28.7099C28.8506 29.1187 28.7733 29.4966 28.6187 29.8592C28.611 29.8746 28.6032 29.8823 28.5955 29.8977C28.4409 30.2371 28.2399 30.5379 27.9925 30.7848L27.9847 30.7925C27.7219 31.047 27.4203 31.2553 27.0647 31.4096C26.7013 31.5638 26.3225 31.641 25.9127 31.641C25.5029 31.641 25.1241 31.5638 24.7607 31.4096C24.3973 31.2553 24.0881 31.047 23.8252 30.7848C23.5623 30.5225 23.3536 30.214 23.1989 29.8515C23.0443 29.4966 22.967 29.111 22.967 28.7022V25.2851H22.0083V28.7022C22.0083 29.2421 22.1088 29.7512 22.3176 30.2294C22.5186 30.7076 22.7969 31.1165 23.1448 31.4636C23.4927 31.8107 23.9102 32.0884 24.3819 32.2889C24.8612 32.4894 25.3638 32.5974 25.9127 32.5974C26.4539 32.5974 26.9642 32.4972 27.4435 32.2889C27.8842 32.1038 28.2708 31.8492 28.6032 31.533C28.6264 31.5098 28.6574 31.4867 28.6806 31.4636C28.8816 31.263 29.0594 31.0316 29.214 30.7925C29.2604 30.7231 29.2913 30.6382 29.3377 30.5611C29.3996 30.4531 29.4614 30.3451 29.5156 30.2294C29.7166 29.7512 29.8248 29.2498 29.8248 28.7022V25.2851H28.8661V28.7099H28.8506Z" fill="white"/>
<path d="M36.6592 21.8758C36.6592 21.3359 36.5587 20.8268 36.35 20.3486C36.149 19.8704 35.8706 19.4615 35.5227 19.1144C35.1748 18.7673 34.7573 18.4896 34.2857 18.2891C33.8063 18.0885 33.296 17.9806 32.7548 17.9806C32.2136 17.9806 31.7034 18.0808 31.224 18.2891C30.7833 18.4742 30.3967 18.7288 30.0643 19.045C30.0411 19.0682 30.0102 19.0913 29.987 19.1144C29.786 19.315 29.6081 19.5464 29.4535 19.7932C29.4071 19.8626 29.3762 19.9475 29.3298 20.0246C29.2679 20.1326 29.2061 20.2406 29.152 20.3563C28.951 20.8345 28.8427 21.3436 28.8427 21.8836V24.7915V25.2929H29.8014V24.7992V21.8758C29.8014 21.467 29.8787 21.0891 30.0334 20.7265C30.0411 20.7111 30.0488 20.7034 30.0566 20.688C30.2112 20.3486 30.4122 20.0478 30.6596 19.7932L30.6673 19.7855C30.9302 19.531 31.2317 19.3227 31.5874 19.1684C31.943 19.0142 32.3296 18.937 32.7394 18.937C33.1491 18.937 33.528 19.0142 33.8914 19.1684C34.247 19.3227 34.564 19.531 34.8269 19.7932C35.0897 20.0555 35.2985 20.364 35.4531 20.7265C35.6077 21.0891 35.6851 21.467 35.6851 21.8758V25.2929H36.6438V21.8758H36.6592Z" fill="white"/>
<path d="M35.7006 25.2928V28.7099C35.7006 29.1187 35.6233 29.4967 35.4686 29.8592C35.314 30.2217 35.1053 30.5303 34.8424 30.7925C34.5795 31.0548 34.2703 31.263 33.9069 31.4173C33.5435 31.5716 33.1647 31.6487 32.7549 31.6487C32.3451 31.6487 31.9663 31.5716 31.6029 31.4173C31.2473 31.263 30.938 31.0548 30.6829 30.8002C30.5282 31.0471 30.3504 31.2708 30.1494 31.479C30.1262 31.5022 30.0953 31.5253 30.0721 31.5484C30.4045 31.8647 30.7911 32.1192 31.2318 32.3044C31.7112 32.5049 32.2137 32.6129 32.7626 32.6129C33.3038 32.6129 33.8141 32.5126 34.2935 32.3044C34.7728 32.1038 35.1826 31.8261 35.5305 31.479C35.8784 31.1319 36.1567 30.7154 36.3578 30.2449C36.5588 29.7666 36.667 29.2653 36.667 28.7176V25.3006H35.7006V25.2928Z" fill="white"/>
</g>
<defs>
<filter id="filter0_d_1_457" x="0" y="0" width="58.6666" height="60" filterUnits="userSpaceOnUse" color-interpolation-filters="sRGB">
<feFlood flood-opacity="0" result="BackgroundImageFix"/>
<feColorMatrix in="SourceAlpha" type="matrix" values="0 0 0 0 0 0 0 0 0 0 0 0 0 0 0 0 0 0 127 0" result="hardAlpha"/>
<feOffset dy="4"/>
<feGaussianBlur stdDeviation="5"/>
<feColorMatrix type="matrix" values="0 0 0 0 0 0 0 0 0 0 0 0 0 0 0 0 0 0 0.1 0"/>
<feBlend mode="normal" in2="BackgroundImageFix" result="effect1_dropShadow_1_457"/>
<feBlend mode="normal" in="SourceGraphic" in2="effect1_dropShadow_1_457" result="shape"/>
</filter>
<clipPath id="clip0_1_457">
<rect width="38.6667" height="40" fill="white" transform="translate(10 6)"/>
</clipPath>
</defs>
</svg>
